<?xml version="1.0" encoding="UTF-8" standalone="no"?>
<!-- Generator: Adobe Illustrator 19.1.0, SVG Export Plug-In . SVG Version: 6.00 Build 0)  -->

<svg
   xmlns:dc="http://purl.org/dc/elements/1.1/"
   xmlns:cc="http://creativecommons.org/ns#"
   xmlns:rdf="http://www.w3.org/1999/02/22-rdf-syntax-ns#"
   xmlns:svg="http://www.w3.org/2000/svg"
   xmlns="http://www.w3.org/2000/svg"
   xmlns:sodipodi="http://sodipodi.sourceforge.net/DTD/sodipodi-0.dtd"
   xmlns:inkscape="http://www.inkscape.org/namespaces/inkscape"
   version="1.1"
   id="Layer_1"
   x="0px"
   y="0px"
   viewBox="188 -43 440 150"
   style="enable-background:new 188 -43 440 150;"
   xml:space="preserve"
   sodipodi:docname="Kahoot_Logo.svg"
   inkscape:version="0.92.5 (2060ec1f9f, 2020-04-08)"><metadata
     id="metadata27"><rdf:RDF><cc:Work
         rdf:about=""><dc:format>image/svg+xml</dc:format><dc:type
           rdf:resource="http://purl.org/dc/dcmitype/StillImage" /></cc:Work></rdf:RDF></metadata><defs
     id="defs25" /><sodipodi:namedview
     pagecolor="#ffffff"
     bordercolor="#666666"
     borderopacity="1"
     objecttolerance="10"
     gridtolerance="10"
     guidetolerance="10"
     inkscape:pageopacity="0"
     inkscape:pageshadow="2"
     inkscape:window-width="1366"
     inkscape:window-height="684"
     id="namedview23"
     showgrid="false"
     inkscape:zoom="1.4182312"
     inkscape:cx="346.40587"
     inkscape:cy="94.841338"
     inkscape:current-layer="Layer_1"
     inkscape:window-x="0"
     inkscape:window-y="20"
     inkscape:window-maximized="1" /><style
     type="text/css"
     id="style2">
	.st0{fill:#000000;}
</style><g
     id="g20"
     style="fill:#551a8b;fill-opacity:1"><polygon
       class="st0"
       points="270.5,-6.4 250.4,-14.1 211.2,23.3 211.2,-23.4 188,-17.5 188,92.2 211.2,93 211,54.6 225.3,40.8   240.4,93 260.9,93 242,24.9  "
       id="polygon8"
       style="fill:#551a8b;fill-opacity:1" /><path
       class="st0"
       d="M334.2,6.2L333.8-43L314-37.8l3.2,121.6l19.5,0.7l-1.1-62.8c4.3-1.9,18.4-5.8,18.9,9.7l1.9,22.1l1.3,31.1h20.4   l-7.7-53.7C367.3-0.5,355.8-0.6,334.2,6.2z"
       id="path10"
       style="fill:#551a8b;fill-opacity:1" /><polygon
       class="st0"
       points="597.5,98.6 609.7,107 621.7,99.9 616.6,85.2 603.2,85.2 "
       id="polygon12"
       style="fill:#551a8b;fill-opacity:1"
       transform="translate(-77.779037)" /><path
       class="st0"
       d="m 473.62096,-23.4 -15.5,-6.4 V 2.3 l -17.3,-0.6 3.3,22.8 h 14 l 1,54.3 c 0,0 -2.2,19.5 27.6,15.1 0,0 9.3,-2.8 9,-9.3 V 63.2 c 0,0 -6.3,3.7 -13.1,3.7 -6.8,0 -6.9,-3.3 -6.9,-3.3 l -1.8,-42 21.7,-1.2 V 6.5 l -22.3,-1.5 z"
       id="path14"
       style="fill:#551a8b;fill-opacity:1"
       inkscape:connector-curvature="0" /><polygon
       class="st0"
       points="587,-31 612.2,77.5 628,-23.2 "
       id="polygon16"
       style="fill:#551a8b;fill-opacity:1"
       transform="translate(-77.779037)" /><path
       class="st0"
       d="M265.6,6.9l5.4,14.2c13.5-8.1,21.1,0,21.1,0l-0.1,9.1c-40.2,7.1-30,44.3-30,44.3c4.1,14.6,17.3,14.1,17.3,14.1   h30.1l0.6-67.7C305.3-10.6,265.6,6.9,265.6,6.9z M292,75.6c0,0-14.6,3.5-16.2-10.7c0,0,0.3-22,16.7-19.6L292,75.6z"
       id="path18"
       style="fill:#551a8b;fill-opacity:1" /><path
       style="fill:#551a8b;fill-opacity:1"
       id="path16"
       d="m 420.30168,86.43174 2.11531,3.52552 16.32193,0.63612 -1.43724,-81.76164 -19.5,-0.7 1.1,62.8 c -4.3,1.9 -18.4,5.8 -18.9,-9.7 l -1.9,-22.1 -1.3,-31.1 h -20.4 l 7.7,53.7 c 3.1,31.4 14.6,31.5 36.2,24.7 z"
       class="st0"
       inkscape:connector-curvature="0"
       sodipodi:nodetypes="cccccccccccc" /><path
       sodipodi:nodetypes="ccccc"
       inkscape:connector-curvature="0"
       class="st0"
       d="m 415.07526,0.7796811 10.6886,-35.6271821 -16.26439,2.034484 -10.05339,34.7520465 z"
       id="path19"
       style="fill:#551a8b;fill-opacity:1" /></g></svg>